<svg xmlns="http://www.w3.org/2000/svg" viewBox="0 0 16 16" width="16" height="16" fill="none">
  <path fill="#FFFFFF" d="M8 0C3.582 0 0 3.582 0 8c0 3.535 2.294 6.532 5.472 7.586.4.074.547-.176.547-.388 0-.19-.007-.692-.012-1.362-2.227.48-2.693-1.062-2.693-1.062-.364-.923-.888-1.166-.888-1.166-.577-.393.044-.385.044-.385.738.052 1.125.856 1.125.856.652 1.12 1.707.797 2.125.608.073-.472.282-.795.513-.978-1.793-.203-3.678-.884-3.678-3.944 0-.872.312-1.587.826-2.143-.083-.203-.358-1.015.078-2.112 0 0 .672-.215 2.198.826.638-.177 1.318-.265 2-.269.682.004 1.362.092 2 .269 1.525-1.041 2.198-.826 2.198-.826.437 1.097.162 1.909.079 2.112.515.556.825 1.271.825 2.143 0 3.068-1.887 3.738-3.683 3.937.289.246.547.733.547 1.479 0 1.068-.01 1.927-.01 2.191 0 .217.146.467.554.387C13.708 14.532 16 11.535 16 8c0-4.418-3.582-8-8-8z"/>
</svg>
